<svg xmlns="http://www.w3.org/2000/svg" viewBox="0 0 500 500" width="500" height="500">
  <circle cx="250" cy="250" r="248" fill="#1B3C2A"/>
  <circle cx="250" cy="250" r="213.29" fill="none" stroke="#EDEAE0" stroke-width="13.41"/>
  <path fill="#EDEAE0" d="M331.53,109.40L325.14,109.40L323.01,108.34L317.69,101.95L314.50,100.89L308.11,95.56L302.79,96.63L297.47,99.82L292.15,96.63L288.96,96.63L286.83,97.69L283.63,101.95L277.25,101.95L270.86,109.40L266.60,109.40L264.48,107.27L262.35,101.95L259.15,98.76L250.64,98.76L243.19,103.01L238.93,107.27L238.93,109.40L236.80,112.59L230.42,109.40L225.09,109.40L217.64,115.79L214.45,115.79L213.39,114.72L204.87,114.72L201.68,116.85L199.55,116.85L194.23,124.30L194.23,128.56L193.16,130.69L188.91,134.94L182.52,134.94L174.01,125.37L168.68,125.37L166.56,126.43L163.36,129.62L161.23,134.94L152.72,142.39L151.65,145.59L149.53,147.72L145.27,148.78L143.14,150.91L143.14,153.04L141.01,155.17L141.01,159.42L139.95,160.49L131.43,160.49L129.30,163.68L130.37,170.07L123.98,178.58L123.98,190.29L126.11,193.48L126.11,200.93L123.98,204.13L123.98,207.32L121.85,210.51L121.85,216.90L118.66,221.16L118.66,225.41L122.92,231.80L120.79,237.12L120.79,244.57L125.05,253.09L123.98,254.15L125.05,260.54L130.37,266.92L130.37,270.12L136.75,277.57L136.75,280.76L135.69,281.82L135.69,287.15L141.01,294.60L143.14,294.60L147.40,297.79L150.59,306.30L158.04,312.69L158.04,316.95L161.23,319.08L163.36,318.01L168.68,318.01L170.81,320.14L180.39,320.14L181.46,319.08L186.78,319.08L187.84,318.01L189.97,319.08L200.61,330.78L200.61,333.98L202.74,337.17L211.26,337.17L213.39,336.11L214.45,331.85L210.19,326.53L211.26,315.88L213.39,310.56L213.39,305.24L210.19,298.85L200.61,287.15L197.42,280.76L197.42,275.44L196.36,274.37L197.42,272.24L197.42,267.99L200.61,261.60L203.81,258.41L211.26,254.15L219.77,254.15L220.84,255.22L222.97,255.22L232.54,260.54L238.93,267.99L246.38,271.18L248.51,273.31L252.77,275.44L261.28,277.57L266.60,280.76L271.93,279.70L271.93,274.37L275.12,269.05L276.18,244.57L277.25,242.44L282.57,238.19L283.63,234.99L285.76,232.86L291.08,230.74L293.21,228.61L293.21,215.83L294.28,213.71L293.21,212.64L293.21,210.51L287.89,205.19L285.76,200.93L285.76,195.61L284.70,193.48L281.50,191.35L274.05,190.29L269.80,187.10L269.80,177.52L272.99,174.33L277.25,174.33L283.63,165.81L294.28,163.68L301.73,159.42L309.18,160.49L325.14,171.13L328.34,171.13L330.46,167.94L330.46,162.62L331.53,161.55L331.53,150.91L330.46,149.85L330.46,146.65L337.91,134.94L337.91,131.75L336.85,130.69L336.85,128.56L333.66,125.37L332.59,118.98L329.40,117.91L327.27,115.79L332.59,112.59L332.59,110.46Z"/>
  <path fill="#EDEAE0" d="M308.11,163.68L300.66,163.68L292.15,167.94L286.83,167.94L284.70,169.00L282.57,174.33L278.31,177.52L274.05,177.52L272.99,178.58L272.99,184.97L275.12,187.10L284.70,189.23L287.89,192.42L290.02,203.06L297.47,211.58L297.47,227.54L295.34,231.80L288.96,234.99L279.38,246.70L279.38,252.02L280.44,253.09L280.44,255.22L278.31,260.54L278.31,270.12L276.18,273.31L275.12,280.76L271.93,283.95L266.60,283.95L265.54,282.89L263.41,282.89L261.28,280.76L254.90,279.70L244.25,274.37L242.12,272.24L238.93,271.18L233.61,265.86L233.61,264.79L227.22,260.54L219.77,257.34L212.32,257.34L204.87,261.60L201.68,265.86L201.68,267.99L200.61,269.05L200.61,280.76L211.26,296.72L217.64,303.11L231.48,311.63L237.87,312.69L238.93,313.75L249.57,313.75L250.64,315.88L249.57,316.95L238.93,316.95L237.87,315.88L234.67,315.88L225.09,311.63L218.71,306.30L216.58,306.30L216.58,312.69L215.52,313.75L214.45,323.33L213.39,325.46L217.64,331.85L217.64,335.04L213.39,340.36L205.94,340.36L204.87,339.30L202.74,339.30L201.68,340.36L201.68,345.68L200.61,346.75L200.61,349.94L196.36,360.59L196.36,364.84L204.87,365.91L213.39,369.10L216.58,369.10L240.00,379.74L258.09,392.52L271.93,406.35L277.25,414.87L278.31,414.87L280.44,404.22L284.70,395.71L296.41,385.07L298.53,374.42L301.73,370.16L307.05,369.10L308.11,368.04L316.63,366.97L317.69,365.91L321.95,365.91L323.01,364.84L334.72,364.84L335.79,363.78L341.11,363.78L347.49,359.52L350.69,354.20L350.69,349.94L351.75,348.88L350.69,341.43L347.49,337.17L347.49,333.98L353.88,324.40L352.82,320.14L350.69,318.01L348.56,318.01L347.49,316.95L350.69,314.82L354.94,313.75L358.14,310.56L358.14,307.37L350.69,298.85L346.43,298.85L344.30,297.79L343.24,295.66L344.30,294.60L349.62,294.60L352.82,292.47L356.01,292.47L357.07,291.40L359.20,291.40L363.46,293.53L368.78,291.40L370.91,287.15L369.85,285.02L369.85,279.70L364.52,269.05L364.52,266.92L356.01,254.15L350.69,248.83L348.56,240.31L344.30,240.31L343.24,241.38L336.85,242.44L330.46,246.70L328.34,246.70L325.14,248.83L318.76,248.83L317.69,247.76L324.08,242.44L333.66,237.12L335.79,234.99L343.24,231.80L348.56,231.80L353.88,229.67L346.43,215.83L345.37,209.45L341.11,198.81L340.04,192.42L333.66,181.78L327.27,175.39L320.89,172.20L318.76,170.07L313.43,167.94Z"/>
  <path fill="#1B3C2A" d="M237.87,296.72L240.00,294.60L240.00,293.53L241.06,292.47L242.12,292.47L245.32,294.60L245.32,296.72L244.25,297.79L242.12,297.79L241.06,298.85L240.00,298.85ZM209.13,280.76L210.19,280.76L212.32,282.89L212.32,286.08L213.39,287.15L213.39,290.34L214.45,291.40L213.39,292.47L212.32,292.47L210.19,290.34L210.19,289.27L207.00,283.95L207.00,282.89ZM348.56,278.63L349.62,279.70L349.62,280.76L346.43,283.95L345.37,283.95L344.30,285.02L344.30,286.08L341.11,291.40L340.04,290.34L340.04,285.02L341.11,283.95L341.11,282.89L345.37,278.63ZM233.61,272.24L234.67,273.31L234.67,277.57L229.35,282.89L229.35,283.95L227.22,286.08L227.22,287.15L226.16,288.21L226.16,289.27L224.03,291.40L224.03,292.47L225.09,293.53L228.29,292.47L232.54,288.21L232.54,287.15L234.67,285.02L234.67,283.95L235.74,282.89L237.87,282.89L238.93,283.95L238.93,289.27L240.00,290.34L240.00,291.40L238.93,292.47L235.74,292.47L234.67,293.53L231.48,294.60L229.35,296.72L226.16,296.72L225.09,295.66L224.03,295.66L220.84,292.47L220.84,291.40L219.77,290.34L219.77,286.08L220.84,285.02L220.84,283.95L222.97,281.82L222.97,280.76L227.22,276.50L228.29,276.50L232.54,272.24ZM225.09,266.92L226.16,265.86L229.35,265.86L232.54,269.05L232.54,270.12L231.48,271.18L229.35,271.18L228.29,272.24L225.09,270.12ZM342.17,250.96L342.17,252.02L341.11,253.09L341.11,255.22L340.04,256.28L338.98,259.47L336.85,261.60L333.66,261.60L332.59,260.54L325.14,260.54L324.08,261.60L321.95,261.60L318.76,263.73L317.69,262.67L317.69,261.60L321.95,257.34L324.08,257.34L329.40,254.15L331.53,254.15L333.66,252.02L334.72,252.02L337.91,249.89L341.11,249.89Z"/>
</svg>
